<mxfile host="app.diagrams.net" modified="2022-12-09T13:12:32.034Z" agent="5.0 (Windows NT 10.0; Win64; x64) AppleWebKit/537.36 (KHTML, like Gecko) Chrome/108.0.0.0 Safari/537.36" etag="EylLUUBRMbYYAOF0xelK" version="20.6.2" type="github">
  <diagram id="kgpKYQtTHZ0yAKxKKP6v" name="Page-1">
    <mxGraphModel dx="2370" dy="1443" grid="1" gridSize="10" guides="1" tooltips="1" connect="1" arrows="1" fold="1" page="1" pageScale="1" pageWidth="1169" pageHeight="1654" math="0" shadow="0">
      <root>
        <mxCell id="0" />
        <mxCell id="1" parent="0" />
        <mxCell id="3nuBFxr9cyL0pnOWT2aG-1" value="Game" style="shape=umlLifeline;perimeter=lifelinePerimeter;container=1;collapsible=0;recursiveResize=0;rounded=0;shadow=0;strokeWidth=1;" parent="1" vertex="1">
          <mxGeometry x="90" y="70" width="170" height="1800" as="geometry" />
        </mxCell>
        <mxCell id="d7Es1nawz8pMTpkhwvdQ-35" value="" style="rounded=0;whiteSpace=wrap;html=1;fillColor=default;" vertex="1" parent="3nuBFxr9cyL0pnOWT2aG-1">
          <mxGeometry x="70" y="70" width="25" height="1690" as="geometry" />
        </mxCell>
        <mxCell id="d7Es1nawz8pMTpkhwvdQ-36" value="" style="endArrow=classic;html=1;rounded=0;exitX=0.969;exitY=0.055;exitDx=0;exitDy=0;exitPerimeter=0;entryX=1.026;entryY=0.014;entryDx=0;entryDy=0;entryPerimeter=0;" edge="1" parent="3nuBFxr9cyL0pnOWT2aG-1" target="d7Es1nawz8pMTpkhwvdQ-41">
          <mxGeometry width="50" height="50" relative="1" as="geometry">
            <mxPoint x="95.00000000000006" y="590.4000000000001" as="sourcePoint" />
            <mxPoint x="120" y="655" as="targetPoint" />
            <Array as="points">
              <mxPoint x="150" y="590" />
              <mxPoint x="150" y="665" />
            </Array>
          </mxGeometry>
        </mxCell>
        <mxCell id="d7Es1nawz8pMTpkhwvdQ-41" value="" style="points=[];perimeter=orthogonalPerimeter;rounded=0;shadow=0;strokeWidth=1;" vertex="1" parent="3nuBFxr9cyL0pnOWT2aG-1">
          <mxGeometry x="95" y="650" width="15" height="1080" as="geometry" />
        </mxCell>
        <mxCell id="d7Es1nawz8pMTpkhwvdQ-37" value="update()" style="text;html=1;align=center;verticalAlign=middle;resizable=0;points=[];autosize=1;strokeColor=none;fillColor=none;" vertex="1" parent="3nuBFxr9cyL0pnOWT2aG-1">
          <mxGeometry x="100" y="560" width="70" height="30" as="geometry" />
        </mxCell>
        <mxCell id="3nuBFxr9cyL0pnOWT2aG-5" value="SponManager" style="shape=umlLifeline;perimeter=lifelinePerimeter;container=1;collapsible=0;recursiveResize=0;rounded=0;shadow=0;strokeWidth=1;" parent="1" vertex="1">
          <mxGeometry x="310" y="70" width="190" height="440" as="geometry" />
        </mxCell>
        <mxCell id="3nuBFxr9cyL0pnOWT2aG-6" value="" style="points=[];perimeter=orthogonalPerimeter;rounded=0;shadow=0;strokeWidth=1;" parent="3nuBFxr9cyL0pnOWT2aG-5" vertex="1">
          <mxGeometry x="90" y="170.5" width="10" height="229.5" as="geometry" />
        </mxCell>
        <mxCell id="d7Es1nawz8pMTpkhwvdQ-54" value="" style="endArrow=classic;html=1;rounded=0;exitX=0.998;exitY=0.195;exitDx=0;exitDy=0;exitPerimeter=0;" edge="1" parent="3nuBFxr9cyL0pnOWT2aG-5" target="d7Es1nawz8pMTpkhwvdQ-46">
          <mxGeometry width="50" height="50" relative="1" as="geometry">
            <mxPoint x="-110.02999999999997" y="708.7" as="sourcePoint" />
            <mxPoint x="289.5" y="708.7" as="targetPoint" />
          </mxGeometry>
        </mxCell>
        <mxCell id="d7Es1nawz8pMTpkhwvdQ-51" value="return instance" style="text;html=1;align=center;verticalAlign=middle;resizable=0;points=[];autosize=1;strokeColor=none;fillColor=none;" vertex="1" parent="3nuBFxr9cyL0pnOWT2aG-5">
          <mxGeometry x="-10" y="510" width="100" height="30" as="geometry" />
        </mxCell>
        <mxCell id="3nuBFxr9cyL0pnOWT2aG-8" value="setBgData(m_GmBg)" style="verticalAlign=bottom;endArrow=block;entryX=0;entryY=0;shadow=0;strokeWidth=1;exitX=1.031;exitY=0.06;exitDx=0;exitDy=0;exitPerimeter=0;" parent="1" source="d7Es1nawz8pMTpkhwvdQ-35" target="3nuBFxr9cyL0pnOWT2aG-6" edge="1">
          <mxGeometry relative="1" as="geometry">
            <mxPoint x="190" y="241" as="sourcePoint" />
          </mxGeometry>
        </mxCell>
        <mxCell id="d7Es1nawz8pMTpkhwvdQ-31" value="BackGround" style="shape=umlLifeline;perimeter=lifelinePerimeter;container=1;collapsible=0;recursiveResize=0;rounded=0;shadow=0;strokeWidth=1;" vertex="1" parent="1">
          <mxGeometry x="810" y="50" width="100" height="1850" as="geometry" />
        </mxCell>
        <mxCell id="d7Es1nawz8pMTpkhwvdQ-42" value="" style="points=[];perimeter=orthogonalPerimeter;rounded=0;shadow=0;strokeWidth=1;" vertex="1" parent="d7Es1nawz8pMTpkhwvdQ-31">
          <mxGeometry x="37.5" y="580" width="25" height="1150" as="geometry" />
        </mxCell>
        <mxCell id="d7Es1nawz8pMTpkhwvdQ-64" value="" style="points=[];perimeter=orthogonalPerimeter;rounded=0;shadow=0;strokeWidth=1;" vertex="1" parent="d7Es1nawz8pMTpkhwvdQ-31">
          <mxGeometry x="62.5" y="1000" width="15" height="80" as="geometry" />
        </mxCell>
        <mxCell id="d7Es1nawz8pMTpkhwvdQ-43" value="instance : SponMananger" style="shape=umlLifeline;perimeter=lifelinePerimeter;container=1;collapsible=0;recursiveResize=0;rounded=0;shadow=0;strokeWidth=1;" vertex="1" parent="1">
          <mxGeometry x="520" y="160" width="300" height="1730" as="geometry" />
        </mxCell>
        <mxCell id="d7Es1nawz8pMTpkhwvdQ-46" value="" style="points=[];perimeter=orthogonalPerimeter;rounded=0;shadow=0;strokeWidth=1;" vertex="1" parent="d7Es1nawz8pMTpkhwvdQ-43">
          <mxGeometry x="117.4" y="170" width="10" height="1500" as="geometry" />
        </mxCell>
        <mxCell id="d7Es1nawz8pMTpkhwvdQ-5" value="" style="rounded=0;whiteSpace=wrap;html=1;fillColor=none;" vertex="1" parent="d7Es1nawz8pMTpkhwvdQ-43">
          <mxGeometry x="-150" y="120" width="289.8" height="155" as="geometry" />
        </mxCell>
        <mxCell id="d7Es1nawz8pMTpkhwvdQ-56" value="" style="points=[];perimeter=orthogonalPerimeter;rounded=0;shadow=0;strokeWidth=1;" vertex="1" parent="d7Es1nawz8pMTpkhwvdQ-43">
          <mxGeometry x="127.4" y="710" width="15" height="930" as="geometry" />
        </mxCell>
        <mxCell id="d7Es1nawz8pMTpkhwvdQ-57" value="" style="endArrow=classic;html=1;rounded=0;exitX=0.969;exitY=0.055;exitDx=0;exitDy=0;exitPerimeter=0;entryX=1.026;entryY=0.014;entryDx=0;entryDy=0;entryPerimeter=0;" edge="1" parent="d7Es1nawz8pMTpkhwvdQ-43">
          <mxGeometry width="50" height="50" relative="1" as="geometry">
            <mxPoint x="127.4" y="645.08" as="sourcePoint" />
            <mxPoint x="142.7900000000001" y="709.9999999999999" as="targetPoint" />
            <Array as="points">
              <mxPoint x="182.4" y="644.68" />
              <mxPoint x="182.4" y="709.68" />
            </Array>
          </mxGeometry>
        </mxCell>
        <mxCell id="d7Es1nawz8pMTpkhwvdQ-19" value="" style="points=[];perimeter=orthogonalPerimeter;rounded=0;shadow=0;strokeWidth=1;" vertex="1" parent="d7Es1nawz8pMTpkhwvdQ-43">
          <mxGeometry x="127.4" y="351.03" width="10" height="80" as="geometry" />
        </mxCell>
        <mxCell id="d7Es1nawz8pMTpkhwvdQ-20" value="" style="endArrow=classic;html=1;rounded=0;exitX=1.012;exitY=0.254;exitDx=0;exitDy=0;exitPerimeter=0;entryX=1.082;entryY=0.105;entryDx=0;entryDy=0;entryPerimeter=0;" edge="1" parent="d7Es1nawz8pMTpkhwvdQ-43" target="d7Es1nawz8pMTpkhwvdQ-19">
          <mxGeometry width="50" height="50" relative="1" as="geometry">
            <mxPoint x="127.39999999999989" y="310.00300000000004" as="sourcePoint" />
            <mxPoint x="136.28" y="390.53" as="targetPoint" />
            <Array as="points">
              <mxPoint x="177.28" y="311.03" />
              <mxPoint x="177" y="360" />
            </Array>
          </mxGeometry>
        </mxCell>
        <mxCell id="d7Es1nawz8pMTpkhwvdQ-22" value="setBgData(m_GmBg)" style="text;html=1;align=center;verticalAlign=middle;resizable=0;points=[];autosize=1;strokeColor=none;fillColor=none;" vertex="1" parent="d7Es1nawz8pMTpkhwvdQ-43">
          <mxGeometry x="139.9" y="280" width="140" height="30" as="geometry" />
        </mxCell>
        <mxCell id="d7Es1nawz8pMTpkhwvdQ-10" value="instance == null" style="rounded=0;whiteSpace=wrap;html=1;fillColor=default;" vertex="1" parent="d7Es1nawz8pMTpkhwvdQ-43">
          <mxGeometry x="-150" y="120" width="100" height="20" as="geometry" />
        </mxCell>
        <mxCell id="d7Es1nawz8pMTpkhwvdQ-60" value="getXpos()" style="text;html=1;align=center;verticalAlign=middle;resizable=0;points=[];autosize=1;strokeColor=none;fillColor=none;" vertex="1" parent="d7Es1nawz8pMTpkhwvdQ-43">
          <mxGeometry x="189.99999999999997" y="760" width="80" height="30" as="geometry" />
        </mxCell>
        <mxCell id="d7Es1nawz8pMTpkhwvdQ-82" value="mBg_CurrXpos&amp;nbsp; ==&amp;nbsp;aSkull_SponXpos || ..." style="rounded=0;whiteSpace=wrap;html=1;fillColor=default;" vertex="1" parent="d7Es1nawz8pMTpkhwvdQ-43">
          <mxGeometry x="-420" y="1160" width="260" height="40" as="geometry" />
        </mxCell>
        <mxCell id="d7Es1nawz8pMTpkhwvdQ-85" value="" style="points=[];perimeter=orthogonalPerimeter;rounded=0;shadow=0;strokeWidth=1;" vertex="1" parent="d7Es1nawz8pMTpkhwvdQ-43">
          <mxGeometry x="142.4" y="1265" width="15" height="335" as="geometry" />
        </mxCell>
        <mxCell id="d7Es1nawz8pMTpkhwvdQ-86" value="Create Object" style="text;html=1;align=center;verticalAlign=middle;resizable=0;points=[];autosize=1;strokeColor=none;fillColor=none;" vertex="1" parent="d7Es1nawz8pMTpkhwvdQ-43">
          <mxGeometry x="140.89999999999998" y="1182" width="100" height="30" as="geometry" />
        </mxCell>
        <mxCell id="d7Es1nawz8pMTpkhwvdQ-87" value="" style="endArrow=classic;html=1;rounded=0;" edge="1" parent="d7Es1nawz8pMTpkhwvdQ-43">
          <mxGeometry width="50" height="50" relative="1" as="geometry">
            <mxPoint x="139.89999999999998" y="1210" as="sourcePoint" />
            <mxPoint x="159.89999999999998" y="1265" as="targetPoint" />
            <Array as="points">
              <mxPoint x="194.89999999999998" y="1210" />
              <mxPoint x="194.89999999999998" y="1265" />
            </Array>
          </mxGeometry>
        </mxCell>
        <mxCell id="d7Es1nawz8pMTpkhwvdQ-75" value="" style="rounded=0;whiteSpace=wrap;html=1;fillColor=none;" vertex="1" parent="d7Es1nawz8pMTpkhwvdQ-43">
          <mxGeometry x="-420" y="1160" width="720" height="440" as="geometry" />
        </mxCell>
        <mxCell id="d7Es1nawz8pMTpkhwvdQ-90" value="" style="points=[];perimeter=orthogonalPerimeter;rounded=0;shadow=0;strokeWidth=1;" vertex="1" parent="d7Es1nawz8pMTpkhwvdQ-43">
          <mxGeometry x="157.4" y="1425" width="15" height="115" as="geometry" />
        </mxCell>
        <mxCell id="d7Es1nawz8pMTpkhwvdQ-92" value="" style="endArrow=classic;html=1;rounded=0;" edge="1" parent="d7Es1nawz8pMTpkhwvdQ-43">
          <mxGeometry width="50" height="50" relative="1" as="geometry">
            <mxPoint x="157.39999999999998" y="1370" as="sourcePoint" />
            <mxPoint x="177.39999999999998" y="1425" as="targetPoint" />
            <Array as="points">
              <mxPoint x="212.39999999999998" y="1370" />
              <mxPoint x="212.39999999999998" y="1425" />
            </Array>
          </mxGeometry>
        </mxCell>
        <mxCell id="d7Es1nawz8pMTpkhwvdQ-91" value="addGameObj()" style="text;html=1;align=center;verticalAlign=middle;resizable=0;points=[];autosize=1;strokeColor=none;fillColor=none;" vertex="1" parent="d7Es1nawz8pMTpkhwvdQ-43">
          <mxGeometry x="210" y="1390" width="100" height="30" as="geometry" />
        </mxCell>
        <mxCell id="d7Es1nawz8pMTpkhwvdQ-88" value="return Object" style="text;html=1;align=center;verticalAlign=middle;resizable=0;points=[];autosize=1;strokeColor=none;fillColor=none;" vertex="1" parent="d7Es1nawz8pMTpkhwvdQ-43">
          <mxGeometry x="-160" y="1520" width="90" height="30" as="geometry" />
        </mxCell>
        <mxCell id="d7Es1nawz8pMTpkhwvdQ-45" value="" style="endArrow=classic;html=1;rounded=0;entryX=0.118;entryY=0.002;entryDx=0;entryDy=0;entryPerimeter=0;exitX=1.022;exitY=0.404;exitDx=0;exitDy=0;exitPerimeter=0;" edge="1" parent="1" source="3nuBFxr9cyL0pnOWT2aG-6" target="d7Es1nawz8pMTpkhwvdQ-46">
          <mxGeometry width="50" height="50" relative="1" as="geometry">
            <mxPoint x="410" y="340" as="sourcePoint" />
            <mxPoint x="590" y="340" as="targetPoint" />
          </mxGeometry>
        </mxCell>
        <mxCell id="d7Es1nawz8pMTpkhwvdQ-58" value="sponByGameBg()" style="text;whiteSpace=wrap;html=1;" vertex="1" parent="1">
          <mxGeometry x="657.4" y="784.68" width="95" height="30" as="geometry" />
        </mxCell>
        <mxCell id="d7Es1nawz8pMTpkhwvdQ-38" value="" style="points=[];perimeter=orthogonalPerimeter;rounded=0;shadow=0;strokeWidth=1;" vertex="1" parent="1">
          <mxGeometry x="185" y="177.75" width="15" height="50" as="geometry" />
        </mxCell>
        <mxCell id="d7Es1nawz8pMTpkhwvdQ-40" value="" style="endArrow=classic;html=1;rounded=0;exitX=0.969;exitY=0.055;exitDx=0;exitDy=0;exitPerimeter=0;entryX=1.137;entryY=0.617;entryDx=0;entryDy=0;entryPerimeter=0;" edge="1" parent="1" target="d7Es1nawz8pMTpkhwvdQ-38">
          <mxGeometry width="50" height="50" relative="1" as="geometry">
            <mxPoint x="185" y="160.4000000000001" as="sourcePoint" />
            <mxPoint x="185.30999999999995" y="225.49999999999977" as="targetPoint" />
            <Array as="points">
              <mxPoint x="220" y="160" />
              <mxPoint x="220" y="207.75" />
            </Array>
          </mxGeometry>
        </mxCell>
        <mxCell id="d7Es1nawz8pMTpkhwvdQ-34" value="BackGround 객체&lt;br&gt;(m_GmBg) 생성" style="text;html=1;align=center;verticalAlign=middle;resizable=0;points=[];autosize=1;strokeColor=none;fillColor=none;" vertex="1" parent="1">
          <mxGeometry x="190" y="120" width="120" height="40" as="geometry" />
        </mxCell>
        <mxCell id="d7Es1nawz8pMTpkhwvdQ-63" value="return &lt;br&gt;mBg_CurrXpos : int" style="text;html=1;align=center;verticalAlign=middle;resizable=0;points=[];autosize=1;strokeColor=none;fillColor=none;" vertex="1" parent="1">
          <mxGeometry x="700" y="1150" width="130" height="40" as="geometry" />
        </mxCell>
        <mxCell id="d7Es1nawz8pMTpkhwvdQ-67" value="getXpos()" style="text;html=1;align=center;verticalAlign=middle;resizable=0;points=[];autosize=1;strokeColor=none;fillColor=none;" vertex="1" parent="1">
          <mxGeometry x="870" y="965" width="80" height="30" as="geometry" />
        </mxCell>
        <mxCell id="d7Es1nawz8pMTpkhwvdQ-69" value="" style="endArrow=classic;html=1;rounded=0;" edge="1" parent="1">
          <mxGeometry width="50" height="50" relative="1" as="geometry">
            <mxPoint x="870" y="995" as="sourcePoint" />
            <mxPoint x="890" y="1050" as="targetPoint" />
            <Array as="points">
              <mxPoint x="925" y="995" />
              <mxPoint x="925" y="1050" />
            </Array>
          </mxGeometry>
        </mxCell>
        <mxCell id="d7Es1nawz8pMTpkhwvdQ-62" value="" style="endArrow=open;endSize=12;dashed=1;html=1;rounded=0;" edge="1" parent="1">
          <mxGeometry width="160" relative="1" as="geometry">
            <mxPoint x="847.5" y="1150.12" as="sourcePoint" />
            <mxPoint x="670" y="1150" as="targetPoint" />
          </mxGeometry>
        </mxCell>
        <mxCell id="d7Es1nawz8pMTpkhwvdQ-70" value="" style="endArrow=open;endSize=12;dashed=1;html=1;rounded=0;" edge="1" parent="1" source="d7Es1nawz8pMTpkhwvdQ-43">
          <mxGeometry width="160" relative="1" as="geometry">
            <mxPoint x="597" y="610.1199999999999" as="sourcePoint" />
            <mxPoint x="180" y="610" as="targetPoint" />
          </mxGeometry>
        </mxCell>
        <mxCell id="d7Es1nawz8pMTpkhwvdQ-81" value="" style="endArrow=classic;html=1;rounded=0;exitX=1.089;exitY=0.041;exitDx=0;exitDy=0;exitPerimeter=0;" edge="1" parent="1" source="d7Es1nawz8pMTpkhwvdQ-56" target="d7Es1nawz8pMTpkhwvdQ-42">
          <mxGeometry width="50" height="50" relative="1" as="geometry">
            <mxPoint x="860" y="1050" as="sourcePoint" />
            <mxPoint x="840" y="919" as="targetPoint" />
          </mxGeometry>
        </mxCell>
        <mxCell id="d7Es1nawz8pMTpkhwvdQ-89" value="" style="endArrow=open;endSize=12;dashed=1;html=1;rounded=0;entryX=1.146;entryY=0.651;entryDx=0;entryDy=0;entryPerimeter=0;" edge="1" parent="1">
          <mxGeometry width="160" relative="1" as="geometry">
            <mxPoint x="647.4000000000001" y="1720" as="sourcePoint" />
            <mxPoint x="202.19000000000005" y="1720" as="targetPoint" />
          </mxGeometry>
        </mxCell>
        <mxCell id="d7Es1nawz8pMTpkhwvdQ-95" value="BattleMananger" style="shape=umlLifeline;perimeter=lifelinePerimeter;container=1;collapsible=0;recursiveResize=0;rounded=0;shadow=0;strokeWidth=1;" vertex="1" parent="1">
          <mxGeometry x="1020" y="50" width="117.5" height="1810" as="geometry" />
        </mxCell>
        <mxCell id="d7Es1nawz8pMTpkhwvdQ-99" value="" style="points=[];perimeter=orthogonalPerimeter;rounded=0;shadow=0;strokeWidth=1;" vertex="1" parent="d7Es1nawz8pMTpkhwvdQ-95">
          <mxGeometry x="51.25" y="1230" width="15" height="570" as="geometry" />
        </mxCell>
        <mxCell id="d7Es1nawz8pMTpkhwvdQ-98" value="" style="endArrow=classic;html=1;rounded=0;exitX=1.001;exitY=0.179;exitDx=0;exitDy=0;exitPerimeter=0;entryX=0.06;entryY=0.352;entryDx=0;entryDy=0;entryPerimeter=0;" edge="1" parent="1" source="d7Es1nawz8pMTpkhwvdQ-85" target="d7Es1nawz8pMTpkhwvdQ-99">
          <mxGeometry width="50" height="50" relative="1" as="geometry">
            <mxPoint x="920" y="1550" as="sourcePoint" />
            <mxPoint x="1160" y="1610" as="targetPoint" />
          </mxGeometry>
        </mxCell>
        <mxCell id="d7Es1nawz8pMTpkhwvdQ-102" value="setMonsterObj()" style="text;whiteSpace=wrap;html=1;" vertex="1" parent="1">
          <mxGeometry x="880" y="1450" width="110" height="40" as="geometry" />
        </mxCell>
        <mxCell id="d7Es1nawz8pMTpkhwvdQ-108" style="edgeStyle=orthogonalEdgeStyle;rounded=0;orthogonalLoop=1;jettySize=auto;html=1;" edge="1" parent="1" source="d7Es1nawz8pMTpkhwvdQ-43" target="d7Es1nawz8pMTpkhwvdQ-43">
          <mxGeometry relative="1" as="geometry" />
        </mxCell>
        <mxCell id="d7Es1nawz8pMTpkhwvdQ-55" value="addGameobj()" style="text;whiteSpace=wrap;html=1;" vertex="1" parent="1">
          <mxGeometry x="370" y="750" width="195" height="40" as="geometry" />
        </mxCell>
      </root>
    </mxGraphModel>
  </diagram>
</mxfile>
